<svg xmlns="http://www.w3.org/2000/svg" viewBox="0 0 32 32">
  <circle cx="16" cy="16" r="15" fill="#05080d" stroke="#1c2b3a" stroke-width="1"/>
  <circle cx="16" cy="16" r="12" fill="none" stroke="#60d8ff" stroke-width="1.6"/>
  <g stroke="#65ffc8" stroke-width="1.4" stroke-linecap="round">
    <line x1="16" y1="3.4" x2="16" y2="6" transform="rotate(0 16 16)"/>
    <line x1="16" y1="3.4" x2="16" y2="6" transform="rotate(40 16 16)"/>
    <line x1="16" y1="3.4" x2="16" y2="6" transform="rotate(80 16 16)"/>
    <line x1="16" y1="3.4" x2="16" y2="6" transform="rotate(120 16 16)"/>
    <line x1="16" y1="3.4" x2="16" y2="6" transform="rotate(160 16 16)"/>
    <line x1="16" y1="3.4" x2="16" y2="6" transform="rotate(200 16 16)"/>
    <line x1="16" y1="3.4" x2="16" y2="6" transform="rotate(240 16 16)"/>
    <line x1="16" y1="3.4" x2="16" y2="6" transform="rotate(280 16 16)"/>
    <line x1="16" y1="3.4" x2="16" y2="6" transform="rotate(320 16 16)"/>
  </g>
  <circle cx="16" cy="16" r="4.2" fill="none" stroke="#65ffc8" stroke-width="1.6"/>
  <circle cx="16" cy="16" r="1.3" fill="#65ffc8"/>
</svg>
