<svg xmlns="http://www.w3.org/2000/svg" viewBox="0 0 48 48">
  <defs>
    <radialGradient id="sgcGlow" cx="50%" cy="50%" r="50%">
      <stop offset="0%" stop-color="#65ffc8" stop-opacity=".55"/>
      <stop offset="100%" stop-color="#65ffc8" stop-opacity="0"/>
    </radialGradient>
  </defs>
  <circle cx="24" cy="24" r="23" fill="url(#sgcGlow)"/>
  <circle cx="24" cy="24" r="19" fill="none" stroke="#60d8ff" stroke-width="1.8"/>
  <circle cx="24" cy="24" r="15.5" fill="none" stroke="rgba(96,216,255,.35)" stroke-width="1"/>
  <g stroke="#65ffc8" stroke-width="1.6" stroke-linecap="round">
    <line x1="24" y1="4.6" x2="24" y2="8.4" transform="rotate(0 24 24)"/>
    <line x1="24" y1="4.6" x2="24" y2="8.4" transform="rotate(30 24 24)"/>
    <line x1="24" y1="4.6" x2="24" y2="8.4" transform="rotate(60 24 24)"/>
    <line x1="24" y1="4.6" x2="24" y2="8.4" transform="rotate(90 24 24)"/>
    <line x1="24" y1="4.6" x2="24" y2="8.4" transform="rotate(120 24 24)"/>
    <line x1="24" y1="4.6" x2="24" y2="8.4" transform="rotate(150 24 24)"/>
    <line x1="24" y1="4.6" x2="24" y2="8.4" transform="rotate(180 24 24)"/>
    <line x1="24" y1="4.6" x2="24" y2="8.4" transform="rotate(210 24 24)"/>
    <line x1="24" y1="4.6" x2="24" y2="8.4" transform="rotate(240 24 24)"/>
    <line x1="24" y1="4.6" x2="24" y2="8.4" transform="rotate(270 24 24)"/>
    <line x1="24" y1="4.6" x2="24" y2="8.4" transform="rotate(300 24 24)"/>
    <line x1="24" y1="4.6" x2="24" y2="8.4" transform="rotate(330 24 24)"/>
  </g>
  <circle cx="24" cy="24" r="6.2" fill="none" stroke="#65ffc8" stroke-width="1.8"/>
  <circle cx="24" cy="24" r="1.8" fill="#65ffc8"/>
</svg>
