<svg xmlns="http://www.w3.org/2000/svg" viewBox="0 0 220 220">
  <g fill="#ffffff">
    <circle cx="12" cy="18" r="1" opacity=".55"/>
    <circle cx="48" cy="6" r=".7" opacity=".35"/>
    <circle cx="76" cy="34" r="1.1" opacity=".5"/>
    <circle cx="104" cy="12" r=".6" opacity=".3"/>
    <circle cx="132" cy="46" r="1" opacity=".45"/>
    <circle cx="160" cy="20" r=".7" opacity=".35"/>
    <circle cx="188" cy="52" r="1.1" opacity=".5"/>
    <circle cx="208" cy="10" r=".6" opacity=".3"/>
    <circle cx="24" cy="70" r=".7" opacity=".4"/>
    <circle cx="60" cy="88" r="1.1" opacity=".55"/>
    <circle cx="92" cy="66" r=".6" opacity=".3"/>
    <circle cx="120" cy="94" r="1" opacity=".45"/>
    <circle cx="150" cy="76" r=".7" opacity=".35"/>
    <circle cx="180" cy="100" r="1.1" opacity=".5"/>
    <circle cx="6" cy="120" r=".8" opacity=".4"/>
    <circle cx="40" cy="140" r="1" opacity=".5"/>
    <circle cx="70" cy="116" r=".6" opacity=".3"/>
    <circle cx="100" cy="150" r="1.1" opacity=".5"/>
    <circle cx="130" cy="128" r=".7" opacity=".35"/>
    <circle cx="158" cy="152" r=".9" opacity=".45"/>
    <circle cx="190" cy="132" r="1.1" opacity=".5"/>
    <circle cx="214" cy="158" r=".6" opacity=".3"/>
    <circle cx="20" cy="182" r="1" opacity=".45"/>
    <circle cx="52" cy="200" r=".7" opacity=".35"/>
    <circle cx="84" cy="178" r="1.1" opacity=".5"/>
    <circle cx="114" cy="206" r=".6" opacity=".3"/>
    <circle cx="146" cy="188" r=".9" opacity=".4"/>
    <circle cx="176" cy="212" r="1" opacity=".45"/>
    <circle cx="204" cy="190" r=".7" opacity=".35"/>
  </g>
</svg>
